# xmcd CD database file
#
# Track frame offsets:
#	150
#	2616
#	27052
#	46490
#	77384
#	94859
#	118177
#	128994
#	162090
#	180819
#	192886
#	214936
#	240287
#	259845
#	289840
#
# Disc length: 4081 seconds
#
# Revision: 2
# Processed by: cddbd v1.4PL0 Copyright (c) Steve Scherf et al.
# Submitted via: NeoAudio 9.9.9
#
DISCID=bb0fef0f
DTITLE=Youngblood Brass Band - Center:Level:Roar
DYEAR=2003
DGENRE=Jazz+Funk
TTITLE0=To Come Together
TTITLE1=Round One
TTITLE2=Culture:Envy:War
TTITLE3=Brooklyn
TTITLE4=Diaspora
TTITLE5=Human Nature
TTITLE6=Thursday
TTITLE7=The Movement
TTITLE8=Avalanche
TTITLE9=Nate McCavish Handbills For No Man
TTITLE10=Camouflage
TTITLE11=Is An Elegy
TTITLE12=Under Your Influence
TTITLE13=VIP
TTITLE14=And Leave Alone
EXTD=YEAR: 2003
EXTT0=
EXTT1=
EXTT2=
EXTT3=
EXTT4=
EXTT5=
EXTT6=
EXTT7=
EXTT8=
EXTT9=
EXTT10=
EXTT11=
EXTT12=
EXTT13=
EXTT14=
PLAYORDER=
